<?xml version="1.0" standalone="no"?><!DOCTYPE svg PUBLIC "-//W3C//DTD SVG 1.1//EN" "http://www.w3.org/Graphics/SVG/1.1/DTD/svg11.dtd"><svg t="1597894461391" class="icon" viewBox="0 0 1024 1024" version="1.1" xmlns="http://www.w3.org/2000/svg" p-id="14212" xmlns:xlink="http://www.w3.org/1999/xlink" width="200" height="200"><defs><style type="text/css"></style></defs><path d="M668.432901 271.345999m-34.825722 0a34.825722 34.825722 0 1 0 69.651444 0 34.825722 34.825722 0 1 0-69.651444 0Z" fill="#B0E281" p-id="14213"></path><path d="M653.312291 265.07619a34.778581 34.778581 0 0 1 39.433796-23.005012 34.825722 34.825722 0 1 0-32.09152 60.812429 36.086755 36.086755 0 0 0 4.714142 1.178535A34.825722 34.825722 0 0 1 653.312291 265.07619z" fill="#FFFFFF" p-id="14214"></path><path d="M692.875726 240.880858a34.75501 34.75501 0 0 1-51.443072 42.356563 34.802151 34.802151 0 1 0 51.443072-42.356563z" fill="#88BF4F" p-id="14215"></path><path d="M668.397545 311.215852a39.881639 39.881639 0 1 1 37.783846-27.106315 39.90521 39.90521 0 0 1-37.783846 27.106315z m0-69.675015a29.793376 29.793376 0 1 0 28.28485 39.363084 29.828732 29.828732 0 0 0-28.28485-39.363084z" fill="" p-id="14216"></path><path d="M446.019694 407.891114c25.515292 47.989963 25.491721 112.220144-7.377632 129.638898s-86.139155-18.420509-111.654447-66.398686-13.612084-89.898683 19.257269-107.376364 74.259518-3.842026 99.77481 44.136152z" fill="#B0E281" p-id="14217"></path><path d="M342.29679 478.75645c-25.515292-47.978178-13.62387-89.886898 19.245484-107.364578 18.243729-9.699347 39.103806-9.805415 58.420001 0.200351-22.745734-18.479436-49.404205-21.213638-72.0203-9.13365-32.869353 17.477681-44.784347 59.386401-19.245484 107.376364 13.635655 25.633146 35.191068 47.824968 57.335749 60.258516a158.678011 158.678011 0 0 1-43.73545-51.337003z" fill="#FFFFFF" p-id="14218"></path><path d="M447.292512 407.891114c-8.391172-15.792375-18.526577-27.77808-29.463386-36.239964 1.82673 2.875626 3.535606 5.892677 5.279839 9.051152 25.515292 47.989963 25.491721 112.220144-7.377632 129.697824-21.496486 11.431794-51.72592 0-77.194071-22.651451 27.695583 39.209874 72.456359 65.231936 101.412974 49.840264 32.833997-17.477681 32.869353-81.707862 7.342276-129.697825z" fill="#88BF4F" p-id="14219"></path><path d="M659.039974 357.54408c-18.715143 55.226171-68.908967 102.450085-106.739955 89.62762S503.331872 366.34774 522.047015 311.133355s60.19959-76.758013 98.030577-63.947333 57.677524 55.120102 38.962382 110.358058z" fill="#B0E281" p-id="14220"></path><path d="M544.144554 313.066153c15.203107-44.866844 45.432541-67.494724 76.534091-67.53008-37.536354-12.044632-78.396177 9.557922-96.934539 64.253752-18.715143 55.226171-7.577983 123.23945 30.26479 136.061916a41.684798 41.684798 0 0 0 16.947339 1.921012c-35.049644-15.686307-44.925771-81.189306-26.811681-134.7066z" fill="#FFFFFF" p-id="14221"></path><path d="M636.812795 255.506482c12.81068 20.329736 15.886658 49.333493 4.407723 83.228173-18.715143 55.226171-68.908967 102.450085-106.739955 89.62762a39.42201 39.42201 0 0 1-6.364091-2.8167c6.340521 10.795385 14.861332 18.750499 25.479936 22.392173 37.842773 12.822466 88.036597-34.401449 106.75174-89.639405C676.281947 311.133355 664.143032 273.538075 636.812795 255.506482z" fill="#88BF4F" p-id="14222"></path><path d="M419.6205 547.135076c-15.262034 0-32.610075-6.540872-50.087756-19.221913a5.032346 5.032346 0 1 1 5.892677-8.14368c22.769305 16.499496 45.503253 21.520057 60.824214 13.364592 13.64744-7.247993 22.003257-25.173517 22.922514-49.144928s-5.50376-50.948087-17.678031-73.729177c-11.585003-21.802906-27.012032-37.112081-44.595781-44.289361a56.675769 56.675769 0 0 0-77.32371 41.119101c-3.889167 18.585504 0.188566 39.940566 11.785354 61.731686a152.455344 152.455344 0 0 0 19.622615 28.43806 5.032346 5.032346 0 1 1-7.601553 6.599799 162.838241 162.838241 0 0 1-20.919004-30.311932c-12.704612-23.900699-17.112335-47.589261-12.751754-68.52005a66.764032 66.764032 0 0 1 90.994721-48.37888c19.799395 8.072968 36.970657 24.984951 49.687054 48.88565 12.96389 24.301401 19.775825 53.034095 18.785855 78.832236-1.072467 28.072714-11.101804 48.543875-28.28485 57.665738a45.173263 45.173263 0 0 1-21.272565 5.103059zM565.546758 454.348981a46.033594 46.033594 0 0 1-14.861332-2.357071c-19.599044-6.64694-33.682543-26.493477-39.657718-55.897936-5.491975-27.106315-3.217402-58.632138 6.246238-86.551642 9.298645-27.42452 24.501752-48.22567 43.994728-60.164234a71.266038 71.266038 0 0 1 104.194318 35.356063c8.249748 21.319706 7.648695 47.141417-1.64995 74.518796-9.428283 27.919504-26.835252 54.342269-47.659973 72.515285-17.12412 14.825976-34.613586 22.580739-50.606311 22.580739zM598.72253 248.670977a61.36634 61.36634 0 0 0-32.197588 9.275074c-17.45411 10.701102-31.184048 29.651952-39.716644 54.813683-8.897943 26.293126-11.054662 55.933292-5.892677 81.318945s17.183047 42.992973 32.998992 48.319953 36.110326-1.308174 55.615087-18.314441 35.839263-41.873364 44.784347-68.16649c8.520811-25.161732 9.145435-48.55566 1.791373-67.659719a60.659219 60.659219 0 0 0-37.607065-36.322462 61.389911 61.389911 0 0 0-19.775825-3.264543z" fill="" p-id="14223"></path><path d="M610.991084 519.863766c0.318205 71.890662-39.268801 147.069437-88.508011 147.316929s-89.509766-74.601293-89.827971-146.491954 39.410225-113.634387 88.649435-113.858309 89.356557 41.130887 89.686547 113.033334z" fill="#B0E281" p-id="14224"></path><path d="M447.952492 524.059352c-0.318205-71.890662 39.410225-113.646172 88.661221-113.858308 1.720662 0 3.394182 0.15321 5.091273 0.247492a82.238203 82.238203 0 0 0-22.09754-2.981695c-49.23921 0.223922-88.979425 41.967647-88.661221 113.858309s40.58876 146.715876 89.827971 146.491954h0.624624c-41.484447-14.048142-73.151694-80.034341-73.446328-143.757752z" fill="#FFFFFF" p-id="14225"></path><path d="M592.935921 439.829424a158.218382 158.218382 0 0 1 6.576228 45.727175c0.318205 71.890662-39.257015 147.069437-88.508011 147.31693-25.2678 0.117854-48.154958-19.563688-64.51303-48.426021 15.686307 43.370104 44.466142 76.51052 77.264783 76.369096 49.23921-0.223922 88.826216-75.426268 88.508011-147.316929-0.141424-30.300146-7.377632-55.04939-19.327981-73.670251z" fill="#88BF4F" p-id="14226"></path><path d="M522.259151 672.189471c-24.996737 0-48.921006-17.277329-67.376871-48.685299-17.171261-29.204108-27.106315-66.681535-27.27131-102.815431-0.15321-35.426775 9.145435-65.52657 26.894179-87.034842A85.82095 85.82095 0 0 1 521.316323 401.76273h0.412487a85.82095 85.82095 0 0 1 66.657964 31.290116c17.937309 21.343277 27.507017 51.360574 27.672012 86.787349 0.164995 36.145682-9.428283 73.705606-26.340267 103.062924-18.231943 31.667247-42.097286 49.180284-67.17652 49.286352z m-0.565697-260.350263H521.316323a75.909467 75.909467 0 0 0-59.044626 28.225924c-16.228433 19.669756-24.749244 47.530334-24.584249 80.576467 0.15321 34.413235 9.581493 70.052146 25.868853 97.818441 16.581994 28.202353 37.4185 43.711879 58.70285 43.723665h0.235707c21.343277-0.094283 42.120856-15.80416 58.502499-44.24222 16.039867-27.848792 25.138161-63.570201 24.984951-97.983436-0.141424-32.998992-8.897943-60.835999-25.303156-80.364332a75.933038 75.933038 0 0 0-58.985698-27.754509z" fill="" p-id="14227"></path><path d="M585.09866 1011.454467H434.623256c-29.887659 0-56.510774-21.708623-59.268547-49.262781L346.61023 674.82939c-1.390672-13.930289 7.884402-25.503507 20.62437-25.503507h285.205575c12.739968 0 22.015042 11.573218 20.62437 25.503507l-28.697338 287.362296c-2.757773 27.554158-29.380888 49.262781-59.268547 49.262781z" fill="#F2B170" p-id="14228"></path><path d="M402.555307 961.743842l-28.744479-286.136618c-1.390672-13.930289 7.884402-24.27783 20.62437-24.27783h-30.641922c-12.751753 0-22.015042 10.606819-20.62437 24.501751l28.744479 286.384111c2.757773 27.554158 29.380888 48.319953 59.268548 48.319953h30.641921c-29.887659 0.035356-56.510774-21.237209-59.268547-48.791367z" fill="#FFFFFF" p-id="14229"></path><path d="M650.77844 651.329394H637.402063v0.718906l-28.744479 288.234412c-2.757773 27.554158-29.380888 50.134897-59.256762 50.134897H398.925418c-6.14017 0-12.12713-3.535606-17.819456-5.256268 10.418253 16.664491 30.241219 25.409224 51.855559 25.409224h150.440048c29.875873 0 56.510774-19.705112 59.256762-47.259271l28.744479-286.926237c1.402457-13.918503-7.872617-25.055663-20.62437-25.055663z" fill="#CE8142" p-id="14230"></path><path d="M585.09866 1016.498598H434.623256a67.68329 67.68329 0 0 1-43.016543-15.462385c-12.244983-10.123619-19.799395-23.747489-21.213638-38.349543L341.601454 675.300804a29.463386 29.463386 0 0 1 7.071213-22.781089 24.749244 24.749244 0 0 1 18.550147-8.249749h285.205576a24.749244 24.749244 0 0 1 18.550148 8.249749 29.463386 29.463386 0 0 1 7.071212 22.781089l-2.804914 28.013788a5.032346 5.032346 0 1 1-10.017551-1.001755l2.804914-28.013788a19.469405 19.469405 0 0 0-4.525576-15.014541 14.79062 14.79062 0 0 0-11.090019-4.949849h-285.205575a14.802405 14.802405 0 0 0-11.090018 4.949849 19.422264 19.422264 0 0 0-4.513791 15.038112L380.37527 961.684915c2.463139 24.666747 26.799896 44.784347 54.21263 44.784347h150.51076c27.44809 0 51.784847-20.035102 54.21263-44.784347l22.085754-220.763257a5.044132 5.044132 0 0 1 10.029337 1.001755l-22.050398 220.763257c-1.461384 14.602054-9.015796 28.225924-21.213638 38.349543a67.68329 67.68329 0 0 1-43.063685 15.462385z" fill="" p-id="14231"></path><path d="M926.63823 1023.994084H318.950003a5.044132 5.044132 0 0 1 0-10.076478h607.688227a5.044132 5.044132 0 0 1 0 10.076478zM288.732354 1023.994084H97.36177a5.044132 5.044132 0 0 1 0-10.076478h191.370584a5.044132 5.044132 0 1 1 0 10.076478z" fill="" p-id="14232"></path><path d="M346.327381 929.09841h331.345238a8.82723 8.82723 0 0 1 8.82723 8.827231v47.2357a30.641921 30.641921 0 0 1-30.641921 30.641921H368.106716a30.641921 30.641921 0 0 1-30.641921-30.641921v-47.2357a8.82723 8.82723 0 0 1 8.82723-8.827231z" fill="#C49C6C" p-id="14233"></path><path d="M355.885304 967.436168v-26.740969c0-7.365846 8.674021-14.059928 16.051652-14.059928h-22.109325c-7.365846 0-14.142425 3.606318-14.142425 10.983951v26.729183c3.358826 51.454857 21.637911 46.22216 47.247486 46.22216h5.633399c-17.477681-6.717652-32.680788-23.323216-32.680787-43.134397z" fill="#FFFFFF" p-id="14234"></path><path d="M674.184154 926.635271h-54.648688c7.365846 0 15.002756 6.694081 15.002756 14.071714v26.740969c0 25.59779-22.545383 43.122612-48.154958 43.122611h70.547131a31.337257 31.337257 0 0 0 31.325472-31.337257V940.706985a14.142425 14.142425 0 0 0-14.071713-14.071714z" fill="#AA7744" p-id="14235"></path><path d="M655.846143 1020.835609H368.106716a35.733194 35.733194 0 0 1-35.686053-35.686053v-47.223915a13.883147 13.883147 0 0 1 13.859577-13.871362h331.392379a13.883147 13.883147 0 0 1 13.859577 13.871362v47.223915a35.733194 35.733194 0 0 1-35.686053 35.686053z m-309.518762-86.704852a3.794884 3.794884 0 0 0-3.783099 3.794884v47.223915A25.644931 25.644931 0 0 0 368.106716 1010.770916h287.739427a25.644931 25.644931 0 0 0 25.609575-25.62136v-47.223915a3.794884 3.794884 0 0 0-3.783099-3.794884zM391.300293 361.539316h-0.459628a5.055917 5.055917 0 0 1-4.560933-5.48019l2.545637-27.554159a5.032346 5.032346 0 0 1 10.029337 0.931043l-2.545637 27.542373a5.020561 5.020561 0 0 1-5.008776 4.560933zM315.591177 443.129324h-20.141171a5.044132 5.044132 0 0 1 0-10.076478h20.141171a5.044132 5.044132 0 1 1 0 10.076478zM446.491108 599.285269a5.244483 5.244483 0 0 1-1.520311-0.235707l-29.699093-9.428284a5.032346 5.032346 0 1 1 3.040622-9.593278l29.699093 9.428283a5.044132 5.044132 0 0 1-1.520311 9.840771zM610.991084 497.966578a5.044132 5.044132 0 0 1-3.747743-8.402958l18.326226-20.317951a5.032346 5.032346 0 0 1 7.4837 6.741223l-18.326226 20.317951a4.985205 4.985205 0 0 1-3.735957 1.661735zM560.985825 260.538829a5.032346 5.032346 0 0 1-4.808424-3.535607L546.289488 225.100268a5.044132 5.044132 0 0 1 9.628635-2.981694l9.887912 31.950095a5.032346 5.032346 0 0 1-4.82021 6.529086zM649.552763 384.921459a5.032346 5.032346 0 0 1-1.649949-9.79363l23.688562-8.249748a5.032346 5.032346 0 0 1 3.311685 9.510781l-23.700348 8.249748a5.055917 5.055917 0 0 1-1.64995 0.282849zM692.863941 245.913204a5.044132 5.044132 0 0 1-4.31344-7.625124l10.394682-17.324471a5.032346 5.032346 0 1 1 8.638665 5.17377l-10.394682 17.336257a5.044132 5.044132 0 0 1-4.325225 2.439568z" fill="" p-id="14236"></path><path d="M462.69597 289.625083a15.922014 15.922014 0 1 1 15.922014-15.922013 15.933799 15.933799 0 0 1-15.922014 15.922013z m0-25.126375a9.216147 9.216147 0 1 0 9.216147 9.204362 9.216147 9.216147 0 0 0-9.216147-9.204362z" fill="#39ADFB" p-id="14237"></path><path d="M754.972758 446.099233m-12.563188 0a12.563188 12.563188 0 1 0 25.126376 0 12.563188 12.563188 0 1 0-25.126376 0Z" fill="#FD6C00" p-id="14238"></path><path d="M238.279252 508.314119m-12.563187 0a12.563188 12.563188 0 1 0 25.126375 0 12.563188 12.563188 0 1 0-25.126375 0Z" fill="#FFD304" p-id="14239"></path><path d="M721.832342 23.499997H691.614693a3.358826 3.358826 0 0 1 0-6.717652h30.217649a3.358826 3.358826 0 1 1 0 6.717652z" fill="#39ADFB" p-id="14240"></path><path d="M708.408823 36.935301a3.358826 3.358826 0 0 1-3.358826-3.358826V3.358826a3.358826 3.358826 0 1 1 6.717652 0v30.217649a3.370611 3.370611 0 0 1-3.358826 3.358826z" fill="#39ADFB" p-id="14241"></path><path d="M397.039761 163.168231l-7.471915-0.235707a3.606318 3.606318 0 0 0-3.01705 1.473169l-4.431294 6.034102a3.618104 3.618104 0 0 1-6.387662-1.178536l-2.086007-7.177281a3.65346 3.65346 0 0 0-2.357071-2.427783l-7.071213-2.35707a3.606318 3.606318 0 0 1-0.895687-6.423019l6.175526-4.207371a3.618104 3.618104 0 0 0 1.579237-2.969909v-7.471915a3.618104 3.618104 0 0 1 5.892677-2.84027l5.892678 4.572717a3.629889 3.629889 0 0 0 3.311684 0.589268l7.071213-2.274574a3.618104 3.618104 0 0 1 4.513791 4.714142l-2.533852 7.071213a3.629889 3.629889 0 0 0 0.471415 3.335255l4.360581 6.069458a3.618104 3.618104 0 0 1-3.017051 5.704111z" fill="#FD6C00" p-id="14242"></path></svg>